<svg width="45" height="45" viewBox="0 0 45 45" fill="none" xmlns="http://www.w3.org/2000/svg">
<path d="M43.75 26.25H1.25C0.918479 26.25 0.600537 26.1183 0.366117 25.8839C0.131696 25.6495 0 25.3315 0 25C0 24.6685 0.131696 24.3506 0.366117 24.1161C0.600537 23.8817 0.918479 23.75 1.25 23.75H43.75C44.0815 23.75 44.3995 23.8817 44.6339 24.1161C44.8683 24.3506 45 24.6685 45 25C45 25.3315 44.8683 25.6495 44.6339 25.8839C44.3995 26.1183 44.0815 26.25 43.75 26.25ZM16.0287 23.75L15.9425 23.7475C15.8275 23.7388 4.425 22.855 2.525 13.4538C2.48884 13.2915 2.48541 13.1237 2.51492 12.96C2.54442 12.7964 2.60626 12.6404 2.69683 12.5009C2.78739 12.3615 2.90485 12.2416 3.04234 12.1481C3.17982 12.0547 3.33457 11.9896 3.49752 11.9566C3.66048 11.9237 3.82836 11.9236 3.99135 11.9564C4.15434 11.9891 4.30915 12.0541 4.44674 12.1474C4.58432 12.2407 4.70191 12.3605 4.79261 12.4999C4.88332 12.6392 4.94533 12.7952 4.975 12.9588C6.50125 20.5138 16.0163 21.2475 16.1125 21.2538C16.4337 21.2785 16.7329 21.4263 16.9478 21.6663C17.1627 21.9063 17.2766 22.22 17.2658 22.542C17.255 22.864 17.1203 23.1693 16.8898 23.3944C16.6594 23.6195 16.3509 23.7469 16.0287 23.75V23.75ZM3.75 38.75C3.53973 38.7499 3.33289 38.6967 3.14863 38.5954C2.96437 38.4941 2.80864 38.348 2.69585 38.1705C2.58307 37.993 2.51688 37.79 2.5034 37.5801C2.48992 37.3703 2.5296 37.1605 2.61875 36.97C6.57625 28.5075 16.4163 27.3188 16.8338 27.2725C17.1633 27.2356 17.494 27.331 17.7532 27.5379C18.0123 27.7448 18.1787 28.0461 18.2156 28.3756C18.2526 28.7052 18.1571 29.0359 17.9503 29.295C17.7434 29.5542 17.442 29.7206 17.1125 29.7575C17.0237 29.7675 8.23875 30.8525 4.88375 38.0288C4.78281 38.2443 4.62257 38.4266 4.42178 38.5543C4.221 38.682 3.98797 38.7499 3.75 38.75V38.75ZM28.4413 23.75C28.1164 23.7506 27.804 23.6247 27.5704 23.3989C27.3368 23.1732 27.2002 22.8654 27.1896 22.5407C27.1791 22.216 27.2953 21.8999 27.5138 21.6594C27.7323 21.419 28.0358 21.273 28.36 21.2525C28.4612 21.2463 38.505 20.4813 40.025 12.9575C40.0568 12.7961 40.1202 12.6427 40.2117 12.506C40.3031 12.3693 40.4208 12.2521 40.5579 12.1612C40.6949 12.0703 40.8487 12.0075 41.0102 11.9764C41.1717 11.9453 41.3377 11.9465 41.4988 11.98C41.8236 12.0457 42.1091 12.2377 42.2924 12.5139C42.4757 12.79 42.5418 13.1276 42.4762 13.4525C40.575 22.8588 29.015 23.715 28.5238 23.7463L28.4413 23.75V23.75ZM41.2512 38.75C41.0133 38.7503 40.7803 38.6828 40.5795 38.5552C40.3786 38.4277 40.2184 38.2455 40.1175 38.03C36.75 30.8263 27.4625 29.7688 27.37 29.7588C27.2059 29.7427 27.0466 29.6943 26.9013 29.6164C26.7559 29.5385 26.6275 29.4326 26.5232 29.3048C26.419 29.177 26.3411 29.0299 26.294 28.8719C26.2469 28.7139 26.2315 28.5481 26.2487 28.3841C26.266 28.2201 26.3155 28.0611 26.3944 27.9164C26.4733 27.7716 26.5801 27.6439 26.7086 27.5406C26.8371 27.4372 26.9848 27.3604 27.1432 27.3144C27.3015 27.2684 27.4674 27.2541 27.6312 27.2725C28.0712 27.3188 38.4238 28.5013 42.3838 36.97C42.4726 37.1606 42.512 37.3705 42.4983 37.5803C42.4846 37.7901 42.4183 37.993 42.3054 38.1704C42.1925 38.3478 42.0368 38.4939 41.8525 38.5952C41.6683 38.6965 41.4615 38.7498 41.2512 38.75V38.75Z" fill="#31373D"/>
<path d="M31.2363 9.7075C31.15 6.425 29.64 4.4375 27.3675 3.4075C27.4512 3.125 27.5 2.82125 27.5 2.5C27.5 1.11875 26.66 0 25.625 0C24.59 0 23.75 1.11875 23.75 2.5C23.75 2.51875 23.7538 2.535 23.7538 2.55375C23.3438 2.52125 22.9275 2.5 22.5 2.5C22.0725 2.5 21.6562 2.52125 21.2462 2.55375C21.2462 2.535 21.25 2.51875 21.25 2.5C21.25 1.11875 20.4112 0 19.375 0C18.3388 0 17.5 1.11875 17.5 2.5C17.5 2.82125 17.55 3.125 17.6325 3.4075C15.3612 4.4375 13.8512 6.425 13.7637 9.7075C9.975 11.9387 7.5 15.8275 7.5 21.25C7.5 30.1987 14.2163 42.4038 22.5 42.4038C30.785 42.4038 37.5 30.1987 37.5 21.25C37.5 15.8275 35.025 11.9375 31.2363 9.7075V9.7075Z" fill="#31373D"/>
<path d="M20.0012 43.6988C11.955 42.955 5.625 35.08 5.625 25.4725C5.625 15.8663 11.955 11.9963 20 11.25C20.4125 11.2125 21.25 11.1925 21.25 14.1175V42.2938C21.25 43.7575 20.4137 43.7388 20.0012 43.6988ZM24.9988 43.6988C33.0438 42.955 39.375 35.08 39.375 25.4725C39.375 15.8663 33.0437 11.9963 25 11.25C24.5875 11.2125 23.75 11.1925 23.75 14.1175V42.2938C23.75 43.7575 24.5875 43.7388 24.9988 43.6988V43.6988Z" fill="#DD2E44"/>
<path d="M16.25 21.25C17.6307 21.25 18.75 20.1307 18.75 18.75C18.75 17.3693 17.6307 16.25 16.25 16.25C14.8693 16.25 13.75 17.3693 13.75 18.75C13.75 20.1307 14.8693 21.25 16.25 21.25Z" fill="#31373D"/>
<path d="M12.5 31.25C14.5711 31.25 16.25 29.5711 16.25 27.5C16.25 25.4289 14.5711 23.75 12.5 23.75C10.4289 23.75 8.75 25.4289 8.75 27.5C8.75 29.5711 10.4289 31.25 12.5 31.25Z" fill="#31373D"/>
<path d="M16.25 38.75C17.6307 38.75 18.75 37.6307 18.75 36.25C18.75 34.8693 17.6307 33.75 16.25 33.75C14.8693 33.75 13.75 34.8693 13.75 36.25C13.75 37.6307 14.8693 38.75 16.25 38.75Z" fill="#31373D"/>
<path d="M30.625 21.25C32.3509 21.25 33.75 19.8509 33.75 18.125C33.75 16.3991 32.3509 15 30.625 15C28.8991 15 27.5 16.3991 27.5 18.125C27.5 19.8509 28.8991 21.25 30.625 21.25Z" fill="#31373D"/>
<path d="M28.125 27.5C29.1605 27.5 30 26.6605 30 25.625C30 24.5895 29.1605 23.75 28.125 23.75C27.0895 23.75 26.25 24.5895 26.25 25.625C26.25 26.6605 27.0895 27.5 28.125 27.5Z" fill="#31373D"/>
<path d="M35 31.25C36.3807 31.25 37.5 30.1307 37.5 28.75C37.5 27.3693 36.3807 26.25 35 26.25C33.6193 26.25 32.5 27.3693 32.5 28.75C32.5 30.1307 33.6193 31.25 35 31.25Z" fill="#31373D"/>
<path d="M30 40C32.0711 40 33.75 38.3211 33.75 36.25C33.75 34.1789 32.0711 32.5 30 32.5C27.9289 32.5 26.25 34.1789 26.25 36.25C26.25 38.3211 27.9289 40 30 40Z" fill="#31373D"/>
</svg>
